<svg width="1176" height="280" viewBox="0 0 1176 280" fill="none" xmlns="http://www.w3.org/2000/svg">
<rect width="1176" height="280" fill="white"/>
<path fill-rule="evenodd" clip-rule="evenodd" d="M175.937 18.562H121.599V115.877H121.01C114.158 106.261 106.226 99.3743 97.2183 95.209C88.2105 91.6809 78.1749 89.9212 67.1136 89.9212C45.4775 90.4564 28.9327 99.5468 17.4764 117.199C5.8263 134.527 0 154.26 0 176.402C0 202.287 6.21612 224 18.6536 241.544C30.6933 259.406 48.366 268.604 71.6686 269.139C84.496 268.929 95.8005 265.526 105.59 258.932C115.283 252.402 121.892 244.316 125.419 234.683H126.151V265.193H175.94V18.562H175.937ZM55.9115 177.685C55.9115 165.903 58.8494 155.943 64.7257 147.803C70.1124 139.662 78.1445 135.485 88.8245 135.269C99.0151 135.485 106.997 139.659 112.776 147.803C118.655 155.94 121.695 166.702 121.889 180.09C121.695 192.729 118.462 203.012 112.191 210.939C106.019 219.288 98.227 223.575 88.8242 223.789C78.5397 223.789 70.6045 219.396 65.0184 210.615C58.9489 202.477 55.9115 191.502 55.9115 177.685Z" fill="#A5A5A5"/>
<path fill-rule="evenodd" clip-rule="evenodd" d="M200.679 258.665C223.497 265.888 246.752 269.5 270.451 269.5C297.745 269.734 321.492 263.955 341.693 252.155C362.224 240.245 372.813 218.517 373.467 186.975C373.467 175.416 371.975 165.722 368.993 157.897C365.903 149.958 361.652 143.358 356.237 138.1C351.047 132.847 345.135 128.41 338.509 124.789C331.992 121.284 325.093 118.422 317.8 116.201C311.128 113.887 304.444 111.61 297.751 109.37C291.011 107.268 284.936 105.225 279.525 103.237C274.114 101.138 269.803 98.5106 266.601 95.3566C263.177 92.3196 261.465 88.2918 261.465 83.2671C261.91 72.5194 267.123 65.8052 277.101 63.1219C281.647 61.7217 286.304 60.7862 291.078 60.3188C295.845 60.0821 300.169 59.9651 304.052 59.9651C322.463 59.9651 340.094 63.7618 356.953 71.3617L360.944 19.765C344.22 13.8166 324.105 10.7269 300.598 10.4932C288.681 10.4932 276.821 11.5456 265.015 13.6501C253.096 16.1026 242.113 20.1917 232.054 25.9151C222.214 31.6381 214.236 39.5184 208.111 49.5648C201.663 59.6083 198.439 72.1657 198.439 87.2306C198.655 109.302 204.672 125.478 216.485 135.762C221.894 141.017 227.967 145.396 234.702 148.9C241.325 152.522 248.004 155.559 254.735 158.008C262.024 160.35 268.922 162.627 275.44 164.842C281.949 166.949 287.802 169.223 292.991 171.676C298.512 174.012 302.816 177.105 305.904 180.965C308.885 184.816 310.379 189.723 310.379 195.676C310.155 205.489 306.172 212.034 298.427 215.302C291.011 218.69 281.94 220.265 271.202 220.032C244.536 219.564 222.79 214.071 205.974 203.552L200.679 258.665Z" fill="#343434"/>
<path fill-rule="evenodd" clip-rule="evenodd" d="M389.525 265.195H450.582V177.631H474.958C536.745 176.929 568.083 150.052 568.964 97.0053C569.191 41.9651 534.172 14.5649 463.921 14.7987H389.525V265.195ZM450.579 62.1193H467.469C478.957 62.1193 488.605 64.399 496.423 68.9561C503.89 74.2205 507.74 83.1647 507.967 95.795C507.74 108.536 503.89 117.542 496.423 122.807C488.608 128.068 478.96 130.582 467.469 130.345H450.579V62.1193ZM549.259 265.195H611.308L629.425 211.779H715.522L732.515 265.195H799.528L711.196 14.7987H636.316L549.259 265.195ZM705.853 164.424H646.552L677.026 66.4219H677.858L705.853 164.424ZM990.289 207.063C972.944 215.472 953.838 219.792 932.965 220.029C910.168 220.029 891.868 212.958 878.059 198.813C863.825 184.906 856.595 165.622 856.38 140.961C856.595 117.115 863.181 97.7711 876.13 82.928C888.864 67.8542 906.15 60.1988 927.993 59.9651C948.647 59.9651 968.608 65.8373 987.877 77.5759L992.853 23.4536C970.919 15.281 948.229 10.9607 924.803 10.4932C886.279 10.4932 854.934 21.235 830.749 42.7162C806.247 64.5452 793.782 97.2948 793.35 140.961C794.21 187.656 808.548 220.815 836.366 240.431C849.318 250.474 863.546 257.771 879.061 262.318C894.472 267.106 909.826 269.5 925.124 269.5C940.637 269.267 953.799 268.046 964.606 265.826C975.305 263.967 984.827 261.809 993.174 259.367L990.289 207.063ZM1176 217.874H1071.78V161.127H1166.86V113.842H1071.78V62.1193H1172.31V14.7987H1010.79V265.195H1176V217.874Z" fill="#343434"/>
</svg>
