<svg width="1176" height="280" viewBox="0 0 1176 280" fill="none" xmlns="http://www.w3.org/2000/svg">
<g clip-path="url(#clip0_79_89)">
<rect width="1176" height="280" fill="white"/>
<path d="M207.44 241.978C206.197 242.226 204.908 241.993 203.823 241.324C202.738 240.654 201.933 239.596 201.564 238.353L175.764 168.432C173.721 162.242 169.602 156.997 164.141 153.632C158.68 150.267 152.231 149 145.944 150.057C142.721 150.625 139.628 151.801 136.821 153.523L65.4959 197.366L63.6846 198.068C62.7804 198.224 61.8521 198.138 60.9897 197.819L3.42572 175.909C2.49619 175.553 1.68351 174.936 1.08127 174.127C0.47904 173.318 0.111757 172.352 0.0217297 171.338C-0.0682972 170.325 0.122595 169.306 0.572417 168.399C1.02224 167.492 1.71269 166.734 2.56425 166.212L166.995 66.2472C169.983 64.4292 173.269 63.1853 176.692 62.5767C183.338 61.3875 190.179 62.6842 195.972 66.2309C201.764 69.7776 206.124 75.3388 208.257 81.9034L258.863 234.388C259.114 235.124 259.202 235.909 259.122 236.684C259.041 237.46 258.795 238.208 258.399 238.874C258.014 239.546 257.49 240.123 256.865 240.566C256.239 241.008 255.526 241.304 254.777 241.434L207.44 241.955V241.978Z" fill="#A5A5A5"/>
<path d="M181.663 276.87C180.4 277.08 179.106 276.947 177.908 276.485L66.5574 234.161C65.2663 233.673 64.1362 232.82 63.2979 231.701C62.4596 230.582 61.9473 229.242 61.8202 227.836C61.6931 226.431 61.9565 225.017 62.5798 223.759C63.2031 222.501 64.161 221.449 65.3425 220.725L146.586 171.151C147.362 170.679 148.215 170.356 149.104 170.199C150.822 169.871 152.597 170.199 154.094 171.122C155.592 172.044 156.709 173.497 157.233 175.207L187.362 267.082C187.703 268.098 187.824 269.177 187.717 270.245C187.61 271.313 187.278 272.345 186.744 273.268C186.2 274.208 185.465 275.017 184.588 275.639C183.711 276.261 182.713 276.681 181.663 276.87Z" fill="#A5A5A5"/>
<path d="M256.878 70.2124H301.652L328.225 158.712C333.107 175.003 335.691 185.992 335.691 185.992H336.354C336.354 185.992 338.607 175.003 343.489 158.712L370.724 70.2124H414.814L356.764 240.868H314.574L256.855 70.2124H256.878Z" fill="#343434"/>
<path d="M496.1 65.9074C447.548 65.9074 425.702 92.1674 424.598 122.052H463.673C464.999 105.762 475.16 98.0583 495.901 98.0583C514.434 98.0583 523.711 106.215 523.711 118.427C523.711 131.342 511.121 133.812 483.531 137.663C446.444 143.101 416.668 155.087 416.668 192.676C416.668 226.639 440.723 244.969 474.718 244.969C503.412 244.969 515.318 234.773 523.711 221.881H524.374C525.479 229.584 527.025 237.492 529.675 240.891H566.321V128.827C566.321 88.7461 546.242 65.8848 496.144 65.8848L496.1 65.9074ZM524.794 180.69C524.794 197.207 510.679 213.294 485.497 213.294C469.836 213.294 459.454 207.629 459.454 191.565C459.454 175.501 470.941 170.29 493.891 165.079C504.936 162.36 516.842 159.641 524.794 155.11V180.69Z" fill="#343434"/>
<path d="M594.684 3.03296H638.795V240.868H594.684V3.03296Z" fill="#343434"/>
<path d="M659.824 155.721C659.824 104.833 695.167 65.5901 746.722 65.5901C798.278 65.5901 833.643 104.833 833.643 155.721C833.643 206.61 798.3 245.875 746.722 245.875C695.145 245.875 659.824 206.61 659.824 155.721ZM788.913 155.721C788.913 122.46 773.649 99.8254 746.722 99.8254C719.796 99.8254 704.555 122.46 704.555 155.721C704.555 188.982 719.487 211.277 746.722 211.277C773.958 211.277 788.913 188.982 788.913 155.721Z" fill="#343434"/>
<path d="M896.485 97.4915H897.457C907.53 78.1874 918.861 68.2182 938.322 68.2182C941.833 68.01 945.351 68.4631 948.703 69.555V109.16H947.732C918.839 106.147 898.098 121.78 898.098 157.738V240.89H854.008V70.212H896.485V97.4915Z" fill="#343434"/>
<path d="M967.815 70.2122H1011.9V240.868H967.815V70.2122ZM1015.11 28.9077C1015.11 34.0253 1013.63 39.0279 1010.86 43.283C1008.08 47.538 1004.14 50.8545 999.535 52.8129C994.926 54.7713 989.854 55.2837 984.961 54.2853C980.067 53.2869 975.573 50.8226 972.045 47.2039C968.517 43.5853 966.114 38.9748 965.141 33.9556C964.168 28.9364 964.667 23.7339 966.576 19.0059C968.486 14.2779 971.719 10.2368 975.867 7.39364C980.016 4.55049 984.893 3.03296 989.882 3.03296C996.572 3.03296 1002.99 5.75904 1007.72 10.6115C1012.45 15.464 1015.11 22.0453 1015.11 28.9077Z" fill="#343434"/>
<path d="M1034.92 206.27L1120.56 106.804V105.807H1044.66V70.2124H1171.79V106.464L1088.11 203.619V204.616H1176V240.868H1034.92V206.27Z" fill="#343434"/>
</g>
<defs>
<clipPath id="clip0_79_89">
<rect width="1176" height="280" fill="white"/>
</clipPath>
</defs>
</svg>
